<?xml version="1.0" encoding="UTF-8"?>
<!DOCTYPE svg PUBLIC "-//W3C//DTD SVG 1.1//EN" "http://www.w3.org/Graphics/SVG/1.1/DTD/svg11.dtd">
<svg xmlns="http://www.w3.org/2000/svg" version="1.1" width="2048px" height="632px" style="shape-rendering:geometricPrecision; text-rendering:geometricPrecision; image-rendering:optimizeQuality; fill-rule:evenodd; clip-rule:evenodd" xmlns:xlink="http://www.w3.org/1999/xlink">
<g><path style="opacity:0.972" fill="#000000" d="M 397.5,124.5 C 427.294,124.793 441.461,139.793 440,169.5C 433.439,191.707 418.605,201.207 395.5,198C 372.851,190.543 363.685,175.043 368,151.5C 372.639,136.69 382.472,127.69 397.5,124.5 Z"/></g>
<g><path style="opacity:0.978" fill="#000000" d="M 76.5,132.5 C 167.5,132.5 258.5,132.5 349.5,132.5C 341.48,163.248 333.146,193.915 324.5,224.5C 321.167,224.5 317.833,224.5 314.5,224.5C 316.924,206.778 313.424,190.444 304,175.5C 295.507,166.168 285.007,160.334 272.5,158C 264.659,156.547 256.825,155.38 249,154.5C 224.333,237.833 199.667,321.167 175,404.5C 172.195,414.054 169.861,423.721 168,433.5C 164.798,446.253 169.298,454.753 181.5,459C 189.375,460.926 197.375,461.926 205.5,462C 205.957,462.414 206.291,462.914 206.5,463.5C 205.358,466.399 204.692,469.399 204.5,472.5C 148.167,472.5 91.8333,472.5 35.5,472.5C 35.7915,468.793 36.7915,465.293 38.5,462C 52.2898,462.707 64.9565,459.374 76.5,452C 85.1495,441.537 91.3162,429.704 95,416.5C 120.439,329.52 146.272,242.687 172.5,156C 129.421,155.289 95.5876,172.455 71,207.5C 67.5,213 64,218.5 60.5,224C 56.7887,224.825 53.122,224.659 49.5,223.5C 58.3507,193.092 67.3507,162.759 76.5,132.5 Z"/></g>
<g><path style="opacity:0.976" fill="#000000" d="M 400.5,239.5 C 406.868,239.17 413.202,239.504 419.5,240.5C 400.384,305.298 382.051,370.298 364.5,435.5C 365.015,444.835 369.349,447.001 377.5,442C 388.51,431.665 398.01,420.165 406,407.5C 408.087,408.794 410.254,409.961 412.5,411C 414.211,412.133 414.711,413.633 414,415.5C 404.555,431.87 393.055,446.703 379.5,460C 367.195,471.649 352.528,478.149 335.5,479.5C 309.307,478.148 297.14,464.481 299,438.5C 311.042,393.667 323.709,349 337,304.5C 339.468,295.963 341.301,287.296 342.5,278.5C 340.753,268.268 334.587,263.268 324,263.5C 320.987,264.856 318.154,264.69 315.5,263C 316.714,260.649 317.548,258.149 318,255.5C 318.5,254.333 319.333,253.5 320.5,253C 347.358,248.802 374.025,244.302 400.5,239.5 Z"/></g>
<g><path style="opacity:0.975" fill="#000000" d="M 549.5,239.5 C 555.5,239.5 561.5,239.5 567.5,239.5C 558.163,273.188 548.996,306.855 540,340.5C 554.796,317.7 571.129,296.033 589,275.5C 601.194,262.301 615.361,251.801 631.5,244C 645.07,237.751 658.404,238.084 671.5,245C 683.142,255.257 687.642,268.09 685,283.5C 683.967,291.63 682.301,299.63 680,307.5C 667.019,349.108 654.853,390.941 643.5,433C 644.377,439.387 647.711,441.054 653.5,438C 663.319,428.507 671.819,418.007 679,406.5C 682.472,408.479 685.638,410.812 688.5,413.5C 679.356,430.823 667.356,445.99 652.5,459C 640.783,468.772 627.283,474.272 612,475.5C 602.538,475.348 594.038,472.514 586.5,467C 580.789,461.21 577.789,454.21 577.5,446C 578.485,437.74 579.985,429.574 582,421.5C 593.667,381.5 605.333,341.5 617,301.5C 619.413,296.571 618.913,292.071 615.5,288C 614.127,287.125 612.627,286.625 611,286.5C 606.228,287.635 601.728,289.468 597.5,292C 573.877,313.282 554.377,337.782 539,365.5C 533.333,376.167 527.667,386.833 522,397.5C 515.165,422.172 508.332,446.839 501.5,471.5C 490.833,471.833 480.167,472.167 469.5,472.5C 458.347,472.658 447.347,472.158 436.5,471C 452.526,417.253 468.359,363.42 484,309.5C 486.879,299.483 489.046,289.317 490.5,279C 490.459,272.576 487.459,268.242 481.5,266C 475.857,265.136 470.19,264.469 464.5,264C 465.406,261.553 466.239,259.053 467,256.5C 467.5,255.333 468.333,254.5 469.5,254C 496.359,249.459 523.025,244.626 549.5,239.5 Z"/></g>
<g><path style="opacity:0.973" fill="#000000" d="M 803.5,239.5 C 805.91,239.921 807.743,241.254 809,243.5C 818.401,257.36 824.067,272.693 826,289.5C 831.076,339.378 834.409,389.378 836,439.5C 857.237,410.919 876.904,381.253 895,350.5C 901.436,340.191 905.269,329.024 906.5,317C 906.643,312.781 905.476,308.948 903,305.5C 896.294,299.126 889.294,293.126 882,287.5C 872.812,271.404 875.312,257.237 889.5,245C 911.513,234.671 928.346,240.171 940,261.5C 943.133,272.469 943.133,283.469 940,294.5C 937.397,302.975 934.397,311.308 931,319.5C 892.31,390.497 846.977,456.83 795,518.5C 778.689,537.483 760.523,554.316 740.5,569C 729.185,576.882 716.685,581.382 703,582.5C 681.231,581.391 669.398,570.057 667.5,548.5C 667.646,531.855 675.646,521.022 691.5,516C 701.591,514.254 710.591,516.588 718.5,523C 723.467,528.969 728.801,534.635 734.5,540C 740.782,542.265 746.782,541.598 752.5,538C 759.262,533.242 765.429,527.742 771,521.5C 772.525,505.386 773.358,489.219 773.5,473C 771.752,418.127 769.252,363.294 766,308.5C 764.823,295.945 759.99,285.112 751.5,276C 744.274,272.018 736.608,270.851 728.5,272.5C 728.5,268.833 728.5,265.167 728.5,261.5C 753.735,254.612 778.735,247.279 803.5,239.5 Z"/></g>
<g><path style="opacity:0.973" fill="#000000" d="M 1070.5,239.5 C 1088.46,238.589 1106.13,240.422 1123.5,245C 1129.16,247.493 1134.49,250.493 1139.5,254C 1162.16,254.5 1184.83,254.667 1207.5,254.5C 1205.34,264.148 1202.67,273.648 1199.5,283C 1188.17,283.333 1176.83,283.667 1165.5,284C 1175.24,302.023 1176.07,320.523 1168,339.5C 1159.23,359.941 1144.73,374.774 1124.5,384C 1107.17,391.708 1089,395.541 1070,395.5C 1057.11,394.514 1044.28,393.347 1031.5,392C 1023.88,395.727 1017.04,400.561 1011,406.5C 1008.28,412.578 1009.78,417.411 1015.5,421C 1017.5,422 1019.5,423 1021.5,424C 1040.09,428.919 1058.76,433.586 1077.5,438C 1099.19,442.59 1117.69,452.756 1133,468.5C 1147.6,491.334 1148.27,514.668 1135,538.5C 1122.18,557.498 1104.68,569.998 1082.5,576C 1042.76,584.896 1003.09,584.562 963.5,575C 948.71,570.694 935.877,563.194 925,552.5C 909.882,528.73 914.048,508.896 937.5,493C 953.127,485.346 969.46,479.68 986.5,476C 958.547,461.478 953.047,440.978 970,414.5C 972.884,411.315 976.051,408.482 979.5,406C 991.386,398.556 1003.72,391.889 1016.5,386C 983.772,373.269 969.272,349.436 973,314.5C 978.254,288.479 992.421,268.979 1015.5,256C 1032.8,246.598 1051.13,241.098 1070.5,239.5 Z M 1085.5,252.5 C 1102.23,252.73 1110.9,261.23 1111.5,278C 1109.65,310.887 1099.81,341.054 1082,368.5C 1070.07,383.349 1056.4,385.349 1041,374.5C 1034.92,365.781 1032.92,356.114 1035,345.5C 1037.5,317.664 1046.17,291.998 1061,268.5C 1067.02,259.75 1075.18,254.417 1085.5,252.5 Z M 1001.5,482.5 C 1022.62,488.197 1043.62,494.364 1064.5,501C 1073.07,504.201 1080.57,509.034 1087,515.5C 1094.89,531.121 1092.06,544.621 1078.5,556C 1064.24,564.523 1048.74,568.356 1032,567.5C 1016.66,567.964 1001.82,565.464 987.5,560C 972.755,553.262 964.088,541.928 961.5,526C 963.162,510.331 970.829,498.664 984.5,491C 990.259,488.121 995.925,485.287 1001.5,482.5 Z"/></g>
<g><path style="opacity:0.975" fill="#000000" d="M 1302.5,239.5 C 1308.54,239.171 1314.54,239.504 1320.5,240.5C 1308.69,283.079 1297.52,325.746 1287,368.5C 1303.43,331.638 1322.43,296.304 1344,262.5C 1350.85,252.313 1360.01,245.146 1371.5,241C 1394.27,237.255 1405.6,247.088 1405.5,270.5C 1405.47,288.429 1399.47,303.929 1387.5,317C 1377.99,322.593 1369.49,321.426 1362,313.5C 1359.67,309.5 1357.33,305.5 1355,301.5C 1350.19,298.661 1345.69,299.161 1341.5,303C 1327.21,318.382 1316.05,335.882 1308,355.5C 1289.55,392.69 1276.38,431.69 1268.5,472.5C 1248.17,472.5 1227.83,472.5 1207.5,472.5C 1222.33,411.186 1237.16,349.853 1252,288.5C 1254.64,269.805 1246.47,261.639 1227.5,264C 1227.17,263.667 1226.83,263.333 1226.5,263C 1227.52,260.929 1228.36,258.762 1229,256.5C 1253.58,250.754 1278.08,245.087 1302.5,239.5 Z"/></g>
<g><path style="opacity:0.977" fill="#000000" d="M 1532.5,239.5 C 1557.42,238.052 1571.59,249.718 1575,274.5C 1577.99,265.553 1580.82,256.553 1583.5,247.5C 1603.34,245.461 1623.17,243.795 1643,242.5C 1627.64,298.588 1611.64,354.588 1595,410.5C 1592.85,418.43 1591.02,426.43 1589.5,434.5C 1590.39,441.583 1594.06,443.749 1600.5,441C 1604.61,438.552 1608.45,435.719 1612,432.5C 1617.05,425.577 1622.21,418.744 1627.5,412C 1631.27,412.554 1634.61,414.22 1637.5,417C 1627.14,436.694 1613.14,453.361 1595.5,467C 1577.37,479.16 1558.03,481.827 1537.5,475C 1529.84,469.351 1525.84,461.684 1525.5,452C 1528.49,435.213 1532.32,418.713 1537,402.5C 1522.74,427.858 1504.57,450.025 1482.5,469C 1464.66,481.507 1446.33,482.507 1427.5,472C 1415.7,459.214 1409.2,444.047 1408,426.5C 1407.09,399.702 1412.09,374.035 1423,349.5C 1436.42,316.131 1456.59,287.631 1483.5,264C 1493.7,256.064 1504.7,249.397 1516.5,244C 1521.87,242.16 1527.21,240.66 1532.5,239.5 Z M 1544.5,255.5 C 1549.73,255.866 1553.9,258.199 1557,262.5C 1559.67,267.519 1561.34,272.852 1562,278.5C 1563.75,300.494 1560.75,321.827 1553,342.5C 1544.2,366.441 1532.53,388.774 1518,409.5C 1512.81,415.688 1507.31,421.521 1501.5,427C 1495.26,431.907 1488.59,432.907 1481.5,430C 1475.58,423.738 1472.91,416.238 1473.5,407.5C 1478.21,357.195 1494.71,311.195 1523,269.5C 1528.6,262.134 1535.77,257.467 1544.5,255.5 Z"/></g>
<g><path style="opacity:0.977" fill="#000000" d="M 1771.5,239.5 C 1777.87,239.17 1784.2,239.504 1790.5,240.5C 1780.18,274.128 1770.35,307.795 1761,341.5C 1774.89,320.278 1789.56,299.611 1805,279.5C 1814.57,267.924 1825.41,257.757 1837.5,249C 1850.8,240.54 1865.13,237.874 1880.5,241C 1891.79,245.297 1898.29,253.464 1900,265.5C 1900.67,269.833 1900.67,274.167 1900,278.5C 1895.45,299.688 1890.45,320.688 1885,341.5C 1901.07,315.759 1919.07,291.425 1939,268.5C 1947.3,259.865 1956.46,252.365 1966.5,246C 1980.72,237.91 1995.05,237.577 2009.5,245C 2018.57,252.316 2022.91,261.816 2022.5,273.5C 2020.89,291.961 2017.05,309.961 2011,327.5C 2000.04,361.871 1990.21,396.538 1981.5,431.5C 1980.84,437.008 1983.17,439.175 1988.5,438C 1998.93,428.9 2007.93,418.567 2015.5,407C 2018.97,408.066 2022.3,409.733 2025.5,412C 2017.18,428.634 2006.18,443.301 1992.5,456C 1982.08,464.379 1970.41,470.379 1957.5,474C 1941.13,477.382 1927.97,472.549 1918,459.5C 1914.13,451.114 1913.47,442.447 1916,433.5C 1928.02,389.416 1940.35,345.416 1953,301.5C 1957.13,287.95 1952.96,284.117 1940.5,290C 1921.67,308.489 1905.5,328.989 1892,351.5C 1881.56,367.051 1873.22,383.718 1867,401.5C 1859.8,424.774 1852.8,448.107 1846,471.5C 1824.91,472.66 1803.74,472.826 1782.5,472C 1782.17,471.667 1781.83,471.333 1781.5,471C 1799.19,411.391 1816.19,351.558 1832.5,291.5C 1831.36,286.747 1828.36,285.247 1823.5,287C 1812.38,294.458 1802.88,303.624 1795,314.5C 1774.38,341.381 1757.05,370.381 1743,401.5C 1736.34,425.142 1729.84,448.808 1723.5,472.5C 1701.83,472.5 1680.17,472.5 1658.5,472.5C 1674.17,418.141 1690.01,363.807 1706,309.5C 1710.07,297.809 1712.07,285.809 1712,273.5C 1710.11,269.942 1707.27,267.442 1703.5,266C 1697.86,265.136 1692.19,264.469 1686.5,264C 1687.56,261.263 1688.39,258.43 1689,255.5C 1689.5,255 1690,254.5 1690.5,254C 1717.71,249.577 1744.71,244.744 1771.5,239.5 Z"/></g>
</svg>
